<svg width="223" height="264" viewBox="0 0 223 264" fill="none" xmlns="http://www.w3.org/2000/svg">
<path fill-rule="evenodd" clip-rule="evenodd" d="M213.578 191.116C207.23 182.588 175.656 170.967 159.259 164.881C153.678 162.79 150.705 161.674 149.415 160.955C147.072 159.054 139.608 148.953 139.608 148.953H139.543H139.095V140.084C144.265 134.472 148.167 128.268 150.44 123.558C152.021 120.296 153.589 109.136 153.589 109.136C163.515 104.657 164.713 88.831 165.126 79.9762C165.336 75.5018 163.111 75.2468 160.7 76.2235C160.799 75.3912 160.844 74.5997 160.917 73.7891C164.426 64.7177 166.945 55.3312 167.169 45.6512C167.513 30.8233 161.53 15.0909 148.958 7.21993C137.267 -0.1002 122.475 0.520435 108.71 1.38644C100.985 1.87236 93.037 2.41602 86.0751 5.79343C79.1108 9.17084 74.2298 16.6064 74.6027 24.3379C71.254 20.3399 64.4173 21.189 60.6861 24.8335C56.955 28.4755 55.6439 33.8976 54.9487 39.0648C53.794 47.6045 53.8782 56.4377 56.4113 64.6744C57.6622 68.7494 59.5579 72.6681 62.0429 76.1297C59.7359 75.2805 57.6743 75.6654 57.8739 79.9762C58.2877 88.8214 59.4857 104.614 69.3801 109.117C70.2533 115.821 71.2757 121.094 72.4641 123.558C74.7542 128.297 78.6898 134.549 83.9076 140.187V148.953H83.4602H83.3952C83.3952 148.953 75.9282 159.054 73.5875 160.955C73.3012 161.188 72.2548 161.643 70.6286 162.283C68.8244 162.99 66.4163 163.88 63.6017 164.931C47.1665 171.032 15.7562 182.612 9.42222 191.116C5.93165 195.802 3.12428 202.388 0.84375 210.074C26.7187 242.667 66.6545 263.59 111.5 263.59C156.346 263.59 196.282 242.667 222.157 210.076C219.878 202.388 217.071 195.802 213.578 191.116Z" fill="url(#paint0_linear_1244_300)"/>
<defs>
<linearGradient id="paint0_linear_1244_300" x1="111.5" y1="0.880859" x2="111.5" y2="263.59" gradientUnits="userSpaceOnUse">
<stop stop-color="#FF6E58"/>
<stop offset="0.211458" stop-color="#FF6D58"/>
<stop offset="0.440625" stop-color="#FF5961"/>
<stop offset="0.711458" stop-color="#FF366D"/>
<stop offset="1" stop-color="#FF316F"/>
</linearGradient>
</defs>
</svg>
