<svg width="80" height="178" viewBox="0 0 80 178" fill="none" xmlns="http://www.w3.org/2000/svg">
<path fill-rule="evenodd" clip-rule="evenodd" d="M67.9615 171.758C60.9659 175.409 49.3207 178.078 39.9472 178.004C30.5289 178.051 18.9106 175.396 11.9157 171.728C9.06078 170.227 6.51382 168.084 6.33201 165.009C3.08051 117.676 3.07591 58.0316 6.3865 10.6548C6.61831 7.59156 8.99628 4.74966 12.0209 3.91767C21.2401 1.40537 30.654 0.0571241 40.0499 0.0704098C49.4458 0.0836954 58.8462 1.39814 68.0667 3.9477C71.1457 4.84515 73.4686 7.59212 73.7118 10.6887C76.9409 58.0819 76.9455 117.726 73.5959 165.021C73.3417 168.144 70.819 170.251 67.9615 171.758Z" fill="url(#paint0_linear_88_5760)"/>
<path d="M26.1686 172.727C25.4976 173.034 25.2063 173.819 25.5802 174.5L26.1161 175.308C26.2947 175.577 26.5572 175.807 26.9484 175.879C31.2907 176.75 35.8289 177.281 39.9484 177.252C44.0455 177.282 48.551 176.776 52.9004 175.939C53.2749 175.868 53.549 175.693 53.7225 175.413L54.243 174.573C54.6125 173.953 54.3672 173.113 53.7135 172.81C53.5291 172.744 53.4062 172.7 53.1994 172.695L26.6661 172.7C26.5041 172.574 26.3364 172.65 26.1686 172.727Z" fill="url(#paint1_linear_88_5760)"/>
<path d="M73.059 108.757L78.9272 105.831C79.536 105.498 80.0402 105.814 79.9129 106.524C79.5 110.771 78.1796 112.635 74.3261 113.875C73.6178 114.104 72.831 113.619 72.714 112.822L72.4293 109.7C72.5043 109.315 72.724 108.913 73.059 108.757Z" fill="#313E50"/>
<path d="M79.9456 106.06C79.7918 105.73 79.4249 105.6 78.983 105.855L73.1063 108.785C72.7709 108.941 72.5508 109.344 72.5369 109.751L79.9456 106.06Z" fill="#E96F45"/>
<path d="M6.89888 108.696L1.02509 105.852C0.435433 105.574 -0.0911862 105.869 0.0103517 106.525C0.360658 110.779 1.68181 112.626 5.46288 113.831C6.19775 114.092 7.02179 113.558 7.08821 112.825L7.42211 109.708C7.45881 109.239 7.24358 108.887 6.89888 108.696Z" fill="#313E50"/>
<path d="M0.0226344 106.06C0.159445 105.694 0.534831 105.62 1.0032 105.856L6.89202 108.716C7.2376 108.908 7.45337 109.262 7.43935 109.673L0.0226344 106.06Z" fill="#E96F45"/>
<path d="M72.246 83.487C72.2993 67.0222 71.7712 50.6229 70.8468 33.6028C70.7425 31.4451 69.0285 29.1214 66.7991 28.1862C49.3884 21.0621 30.7419 21.0192 13.2574 28.1638C11.0376 29.0788 9.3588 31.3503 9.23393 33.5627C8.25225 50.6525 7.70724 66.9412 7.71542 83.428C7.71083 95.2591 7.99693 107.058 8.46165 119.125C8.56599 121.283 10.1961 123.645 12.4255 124.58C30.3222 132.083 49.5276 132.121 67.4148 124.642C69.6346 123.727 71.3358 121.395 71.4607 119.183C71.9685 107.122 72.2414 95.3181 72.246 83.487Z" fill="url(#paint2_linear_88_5760)"/>
<path d="M72.246 83.487C72.2993 67.0222 71.7712 50.6229 70.8468 33.6028C70.7425 31.4451 69.0285 29.1214 66.7991 28.1862C49.3884 21.0621 30.7419 21.0192 13.2574 28.1638C11.0376 29.0788 9.3588 31.3503 9.23393 33.5627C8.25225 50.6525 7.70724 66.9412 7.71542 83.428C7.71083 95.2591 7.99693 107.058 8.46165 119.125C8.56599 121.283 10.1961 123.645 12.4255 124.58C30.3222 132.083 49.5276 132.121 67.4148 124.642C69.6346 123.727 71.3358 121.395 71.4607 119.183C71.9685 107.122 72.2414 95.3181 72.246 83.487Z" fill="#1F1B2D"/>
<path opacity="0.5" d="M55.0272 173.213C56.3186 172.923 57.571 172.551 58.801 172.239L62.999 126.411C61.6851 126.761 55.0272 173.213 55.0272 173.213ZM17.0143 126.29L21.0944 172.142C22.3461 172.521 23.5587 172.819 24.8943 173.16C24.8943 173.16 18.2436 126.731 17.0143 126.29Z" fill="#E96F45"/>
<path d="M70.0664 82.984C70.0685 67.5953 69.6287 52.4587 68.7146 36.5367C68.6269 34.5217 67.0525 32.3848 64.946 31.4936C48.6807 24.8481 31.3365 24.8612 15.0878 31.4907C13.0357 32.329 11.4632 34.5018 11.3441 36.511C10.397 52.3821 9.96468 67.6168 9.92357 82.9232C9.94204 93.9418 10.1673 104.966 10.6161 116.139C10.7038 118.154 12.2557 120.351 14.3622 121.242C30.9905 128.223 48.8713 128.265 65.5451 121.241C67.6196 120.342 69.1921 118.169 69.3112 116.16C69.7512 105.032 70.0625 94.0631 70.0664 82.984Z" fill="#1F1B2D"/>
<path opacity="0.1" d="M65.5854 121.324C67.6599 120.425 69.2324 118.253 69.3515 116.243C69.8363 104.994 70.0861 94.0035 70.1291 83.0069C70.1312 67.6181 69.6914 52.4816 68.7773 36.5596C68.6896 34.5446 67.1152 32.4077 65.0087 31.5165C56.9068 28.2048 48.4681 26.5507 40.1062 26.5658L40.0426 126.54C48.6113 126.531 57.2485 124.836 65.5854 121.324Z" fill="#313E50"/>
<path d="M13.4769 78.0362C13.4834 70.5148 13.8644 62.9223 14.6315 54.8525C14.8121 52.8652 16.7028 51.1484 19.3081 50.5082C32.8766 47.1595 47.1578 47.1439 60.7429 50.5042C63.3527 51.1651 65.2293 52.8631 65.4008 54.8397C66.1652 62.9108 66.55 70.5039 66.5435 78.0253C66.5556 83.4331 66.3609 88.8352 65.9255 94.6983C65.8064 96.7075 63.9157 98.4244 61.288 99.1249C47.3615 102.687 32.6668 102.692 18.7576 99.0786C16.1479 98.4177 14.2937 96.6593 14.1222 94.6827C13.6689 88.775 13.5114 83.3836 13.4769 78.0362Z" fill="url(#paint3_linear_88_5760)"/>
<path d="M62.4302 99.0546L68.8749 125.028C69.1534 126.154 70.2931 126.836 71.5006 126.584C72.6467 126.31 73.3407 125.191 73.0846 124.005L66.7289 98.5421C66.7123 98.3994 66.6566 98.1742 66.6399 98.0315L66.7249 51.2779C66.7473 51.2175 66.7082 51.1351 66.7306 51.0747L68.8309 26.6565C68.927 25.4598 68.0447 24.4598 66.8877 24.3875C65.6693 24.2932 64.6513 25.1597 64.5776 26.2961L62.494 50.8571C62.4716 50.9175 62.5106 50.9999 62.4882 51.0602L62.4641 98.588C62.4193 98.7087 62.4135 98.9119 62.4302 99.0546ZM17.5991 50.9901L15.5076 26.2335C15.3744 25.0914 14.3859 24.1902 13.1617 24.299C11.9989 24.4298 11.0814 25.4008 11.1922 26.6032L13.2504 51.0743C13.228 51.1347 13.2671 51.2171 13.2447 51.2774L13.2436 97.9927C13.2603 98.1354 13.193 98.3165 13.1873 98.5197L6.87721 123.961C6.59676 125.092 7.28888 126.229 8.44008 126.504C9.59128 126.78 10.7489 126.1 11.0293 124.969L17.4572 99.0228C17.5244 98.8417 17.5078 98.6989 17.5135 98.4958L17.5319 51.1712C17.6158 51.1328 17.5767 51.0504 17.5991 50.9901Z" fill="#E96F45"/>
<path d="M40.0202 2.59381C43.7875 2.57497 47.5266 2.81964 51.3215 3.28944C51.858 3.34479 52.2832 2.94986 52.2557 2.46121C52.2672 2.05496 51.9266 1.65939 51.5129 1.64806C47.6342 1.21662 43.8336 0.949941 40.0663 0.968775C36.2375 0.965599 32.4644 1.18756 28.6016 1.65101C28.1656 1.70006 27.8244 2.05664 27.8743 2.48491C27.9018 2.97355 28.3039 3.39113 28.8238 3.30372C32.5412 2.85662 36.3143 2.63465 40.0202 2.59381Z" fill="#313E50"/>
<path d="M70.1051 169.3C71.5551 168.023 72.1905 165.767 72.1515 163.271L60.5213 171.341C60.3304 171.48 60.1781 171.701 60.0871 171.945C59.7457 172.858 60.6444 173.798 61.6076 173.451C64.9562 172.297 67.8757 170.99 70.1051 169.3ZM18.1866 173.668C19.1062 173.995 20.0676 173.096 19.7277 172.148C19.6734 171.921 19.4737 171.713 19.2512 171.565L7.77411 163.624C7.72901 166.159 8.35642 168.382 9.76133 169.639C11.9177 171.302 14.8534 172.552 18.1866 173.668Z" fill="url(#paint4_linear_88_5760)"/>
<path fill-rule="evenodd" clip-rule="evenodd" d="M64.7865 88.6089C64.9571 85.089 65.0573 81.6036 65.0534 78.1074C65.0266 70.3005 64.6866 62.5866 63.9446 54.4551C63.8505 53.3955 62.5771 52.3238 60.8503 51.9107C54.0884 50.2415 47.0967 49.3793 40.1434 49.3516L40.1434 49.424C33.1248 49.4181 26.1048 50.2632 19.3314 51.9535C17.5816 52.3528 16.3286 53.4773 16.2159 54.5313C15.4488 62.6011 15.0844 70.3363 15.0273 78.1816C15.0337 83.7925 15.2469 89.4091 15.6444 95.0917C15.6771 96.1293 17.012 97.223 18.7388 97.6362C32.5865 101.227 47.488 101.229 61.353 97.6441C63.1253 97.1844 64.3559 96.1203 64.4686 95.0663C64.5851 92.8991 64.6952 90.7494 64.7865 88.6089Z" fill="url(#paint5_linear_88_5760)"/>
<defs>
<linearGradient id="paint0_linear_88_5760" x1="3.89844" y1="178.006" x2="145.802" y2="61.0032" gradientUnits="userSpaceOnUse">
<stop stop-color="#E96F45"/>
<stop offset="1" stop-color="#E16B42"/>
</linearGradient>
<linearGradient id="paint1_linear_88_5760" x1="39.9444" y1="174.324" x2="39.9415" y2="179.477" gradientUnits="userSpaceOnUse">
<stop stop-color="white"/>
<stop offset="1" stop-color="#628E93"/>
</linearGradient>
<linearGradient id="paint2_linear_88_5760" x1="39.9557" y1="149.765" x2="40.0262" y2="24.2624" gradientUnits="userSpaceOnUse">
<stop stop-color="#151515"/>
<stop offset="1"/>
</linearGradient>
<linearGradient id="paint3_linear_88_5760" x1="39.9775" y1="111.538" x2="40.0128" y2="48.671" gradientUnits="userSpaceOnUse">
<stop stop-color="#151515"/>
<stop offset="1"/>
</linearGradient>
<linearGradient id="paint4_linear_88_5760" x1="39.9355" y1="167.272" x2="39.9946" y2="178.746" gradientUnits="userSpaceOnUse">
<stop stop-color="white"/>
<stop offset="1" stop-color="#628E93"/>
</linearGradient>
<linearGradient id="paint5_linear_88_5760" x1="15.0273" y1="100.331" x2="48.225" y2="34.1545" gradientUnits="userSpaceOnUse">
<stop stop-color="#E96F45"/>
<stop offset="1" stop-color="#E16B42"/>
</linearGradient>
</defs>
</svg>
