<svg width="60" height="60" viewBox="0 0 60 60" fill="none" xmlns="http://www.w3.org/2000/svg">
<g id="Icon">
<rect id="Rectangle" width="60" height="60" rx="14" fill="#FFF3EC"/>
<g id="Shape">
<rect id="Rectangle_2" x="28.1053" y="17.6316" width="16.8421" height="2.10526" fill="#E96F45"/>
<rect id="Rectangle_3" x="28.1053" y="28.9474" width="16.8421" height="2.10526" fill="#E96F45"/>
<rect id="Rectangle_4" x="28.1053" y="40.2632" width="16.8421" height="2.10526" fill="#E96F45"/>
<path id="Shape_2" fill-rule="evenodd" clip-rule="evenodd" d="M23.3684 41.3158C23.3684 43.3421 21.7105 45 19.6842 45C17.6579 45 16 43.3421 16 41.3158C16 39.2895 17.6579 37.6316 19.6842 37.6316C21.7105 37.6316 23.3684 39.2895 23.3684 41.3158ZM21.2632 41.3158C21.2632 40.4474 20.5526 39.7369 19.6842 39.7369C18.8158 39.7369 18.1053 40.4474 18.1053 41.3158C18.1053 42.1842 18.8158 42.8947 19.6842 42.8947C20.5526 42.8947 21.2632 42.1842 21.2632 41.3158Z" fill="#E96F45"/>
<path id="Shape_3" fill-rule="evenodd" clip-rule="evenodd" d="M23.3684 30C23.3684 32.0263 21.7105 33.6842 19.6842 33.6842C17.6579 33.6842 16 32.0263 16 30C16 27.9737 17.6579 26.3158 19.6842 26.3158C21.7105 26.3158 23.3684 27.9737 23.3684 30ZM21.2632 30C21.2632 29.1316 20.5526 28.4211 19.6842 28.4211C18.8158 28.4211 18.1053 29.1316 18.1053 30C18.1053 30.8684 18.8158 31.579 19.6842 31.579C20.5526 31.579 21.2632 30.8684 21.2632 30Z" fill="#E96F45"/>
<path id="Shape_4" fill-rule="evenodd" clip-rule="evenodd" d="M23.3684 18.6842C23.3684 20.7105 21.7105 22.3684 19.6842 22.3684C17.6579 22.3684 16 20.7105 16 18.6842C16 16.6579 17.6579 15 19.6842 15C21.7105 15 23.3684 16.6579 23.3684 18.6842ZM21.2632 18.6842C21.2632 17.8158 20.5526 17.1053 19.6842 17.1053C18.8158 17.1053 18.1053 17.8158 18.1053 18.6842C18.1053 19.5526 18.8158 20.2632 19.6842 20.2632C20.5526 20.2632 21.2632 19.5526 21.2632 18.6842Z" fill="#E96F45"/>
</g>
</g>
</svg>
